<?xml version="1.0" encoding="UTF-8" standalone="no"?>
<!DOCTYPE svg PUBLIC "-//W3C//DTD SVG 1.1//EN"
 "http://www.w3.org/Graphics/SVG/1.1/DTD/svg11.dtd">
<!-- Generated by graphviz version 2.47.0 (20210316.0004)
 -->
<!-- Title: dependencies Pages: 1 -->
<svg width="504pt" height="287pt"
 viewBox="0.00 0.00 504.00 287.00" xmlns="http://www.w3.org/2000/svg" xmlns:xlink="http://www.w3.org/1999/xlink">
<g id="graph0" class="graph" transform="scale(1 1) rotate(0) translate(4 283)">
<title>dependencies</title>
<polygon fill="white" stroke="transparent" points="-4,4 -4,-283 500,-283 500,4 -4,4"/>
<text text-anchor="start" x="227.01" y="-42.4" font-family="Times-12" font-weight="bold" font-size="14.00">Legend</text>
<polygon fill="#ffffb3" stroke="transparent" points="14,-10 14,-30 34,-30 34,-10 14,-10"/>
<text text-anchor="start" x="37.63" y="-15.4" font-family="Times-12" font-size="14.00"> &#160;Declarations</text>
<polygon fill="#8dd3c7" stroke="transparent" points="127,-10 127,-30 147,-30 147,-10 127,-10"/>
<text text-anchor="start" x="150.73" y="-15.4" font-family="Times-12" font-size="14.00"> &#160;Module</text>
<polygon fill="#80b1d3" stroke="transparent" points="213,-10 213,-30 233,-30 233,-10 213,-10"/>
<text text-anchor="start" x="236.78" y="-15.4" font-family="Times-12" font-size="14.00"> &#160;Bootstrap</text>
<polygon fill="#fdb462" stroke="transparent" points="310,-10 310,-30 330,-30 330,-10 310,-10"/>
<text text-anchor="start" x="333.67" y="-15.4" font-family="Times-12" font-size="14.00"> &#160;Providers</text>
<polygon fill="#fb8072" stroke="transparent" points="406,-10 406,-30 426,-30 426,-10 406,-10"/>
<text text-anchor="start" x="429.73" y="-15.4" font-family="Times-12" font-size="14.00"> &#160;Exports</text>
<g id="clust1" class="cluster">
<title>cluster_AppModule</title>
<polygon fill="none" stroke="black" stroke-dasharray="1,5" points="63,-146 63,-271 437,-271 437,-146 63,-146"/>
</g>
<g id="clust3" class="cluster">
<title>cluster_AppModule_imports</title>
<polygon fill="none" stroke="black" points="71,-154 71,-206 429,-206 429,-154 71,-154"/>
</g>
<g id="clust19" class="cluster">
<title>cluster_StudentsModule</title>
<polygon fill="none" stroke="black" stroke-dasharray="1,5" points="59,-70 59,-138 207,-138 207,-70 59,-70"/>
</g>
<g id="clust24" class="cluster">
<title>cluster_StudentsModule_providers</title>
<polygon fill="none" stroke="black" points="67,-78 67,-130 199,-130 199,-78 67,-78"/>
</g>
<!-- BaseModule -->
<g id="node1" class="node">
<title>BaseModule</title>
<polygon fill="#8dd3c7" stroke="black" points="421.26,-198 418.26,-202 397.26,-202 394.26,-198 334.74,-198 334.74,-162 421.26,-162 421.26,-198"/>
<text text-anchor="middle" x="378" y="-175.8" font-family="Times,serif" font-size="14.00">BaseModule</text>
</g>
<!-- AppModule -->
<g id="node4" class="node">
<title>AppModule</title>
<polygon fill="#8dd3c7" stroke="black" points="302.66,-263 299.66,-267 278.66,-267 275.66,-263 219.34,-263 219.34,-227 302.66,-227 302.66,-263"/>
<text text-anchor="middle" x="261" y="-240.8" font-family="Times,serif" font-size="14.00">AppModule</text>
</g>
<!-- BaseModule&#45;&gt;AppModule -->
<g id="edge1" class="edge">
<title>BaseModule&#45;&gt;AppModule</title>
<path fill="none" stroke="black" d="M378,-198.11C378,-217.34 378,-245 378,-245 378,-245 312.91,-245 312.91,-245"/>
<polygon fill="black" stroke="black" points="312.91,-241.5 302.91,-245 312.91,-248.5 312.91,-241.5"/>
</g>
<!-- CommonModule -->
<g id="node2" class="node">
<title>CommonModule</title>
<polygon fill="#8dd3c7" stroke="black" points="316.67,-198 313.67,-202 292.67,-202 289.67,-198 205.33,-198 205.33,-162 316.67,-162 316.67,-198"/>
<text text-anchor="middle" x="261" y="-175.8" font-family="Times,serif" font-size="14.00">CommonModule</text>
</g>
<!-- CommonModule&#45;&gt;AppModule -->
<g id="edge2" class="edge">
<title>CommonModule&#45;&gt;AppModule</title>
<path fill="none" stroke="black" d="M261,-198.11C261,-198.11 261,-216.99 261,-216.99"/>
<polygon fill="black" stroke="black" points="257.5,-216.99 261,-226.99 264.5,-216.99 257.5,-216.99"/>
</g>
<!-- StudentsModule -->
<g id="node3" class="node">
<title>StudentsModule</title>
<polygon fill="#8dd3c7" stroke="black" points="186.77,-198 183.77,-202 162.77,-202 159.77,-198 79.23,-198 79.23,-162 186.77,-162 186.77,-198"/>
<text text-anchor="middle" x="133" y="-175.8" font-family="Times,serif" font-size="14.00">StudentsModule</text>
</g>
<!-- StudentsModule&#45;&gt;AppModule -->
<g id="edge3" class="edge">
<title>StudentsModule&#45;&gt;AppModule</title>
<path fill="none" stroke="black" d="M133,-198.11C133,-217.34 133,-245 133,-245 133,-245 209.09,-245 209.09,-245"/>
<polygon fill="black" stroke="black" points="209.09,-248.5 219.09,-245 209.09,-241.5 209.09,-248.5"/>
</g>
<!-- DataService -->
<g id="node5" class="node">
<title>DataService</title>
<ellipse fill="#fdb462" stroke="black" cx="133" cy="-104" rx="58.44" ry="18"/>
<text text-anchor="middle" x="133" y="-99.8" font-family="Times,serif" font-size="14.00">DataService</text>
</g>
<!-- DataService&#45;&gt;StudentsModule -->
<g id="edge4" class="edge">
<title>DataService&#45;&gt;StudentsModule</title>
<path fill="none" stroke="black" d="M133,-122.01C133,-122.01 133,-151.85 133,-151.85"/>
<polygon fill="black" stroke="black" points="129.5,-151.85 133,-161.85 136.5,-151.85 129.5,-151.85"/>
</g>
</g>
</svg>
